<svg width="587" height="587" viewBox="0 0 587 587" fill="none" xmlns="http://www.w3.org/2000/svg">
<path d="M272.404 335.691L251.309 314.595L487.943 78.8782L508.121 99.0561L272.404 335.691Z" fill="white"/>
<path d="M513.624 230.214H482.44V104.559H356.785V73.375H513.624V230.214Z" fill="white"/>
<path d="M434.747 513.625H120.152C94.4704 513.625 73.375 492.53 73.375 466.848V152.253C73.375 126.572 94.4704 105.477 120.152 105.477H293.5V136.661H120.152C111.897 136.661 104.559 143.998 104.559 152.253V466.848C104.559 475.103 111.897 482.441 120.152 482.441H434.747C443.002 482.441 450.339 475.103 450.339 466.848V293.5H481.523V466.848C482.441 492.53 461.345 513.625 434.747 513.625Z" fill="white"/>
</svg>
